<?xml version="1.0" encoding="UTF-8"?>
<svg width="1297.6" height="457.47" version="1.1" viewBox="0 0 1297.6 457.47" xml:space="preserve" xmlns="http://www.w3.org/2000/svg" xmlns:xlink="http://www.w3.org/1999/xlink"><defs><linearGradient id="linearGradient2491" x1="236" x2="-137.38" y1="176.59" y2="251.14" gradientUnits="userSpaceOnUse"><stop stop-color="#00a000" offset="0"/><stop stop-color="#00d300" offset="1"/></linearGradient></defs><path transform="matrix(0 .81 .81 0 186.61 202.38)" d="m-249.86 324.71c11.179-13.306 25.267-23.009 27.16-59.385 0.11677-2.795 0.22851-5.5949 0.22851-8.5117v-130c0-25.969 19.599-47.193 44.873-49.744 1.6849-0.17009 3.3957-0.25586 5.127-0.25586h410c1.7312 0 3.442 0.08577 5.127 0.25586 25.274 2.5514 44.873 23.776 44.873 49.744v130c0 2.9169 0.11175 5.7167 0.22852 8.5117 1.8936 36.376 15.981 46.079 27.16 59.385l-9.4922 9.4902c-13.305-11.178-23.008-25.263-59.379-27.158-2.7969-0.11693-5.5987-0.22852-8.5176-0.22852h-130c-27.7 0-50-22.3-50-50v-56.188c0-13.807-11.193-25-25-25s-25 11.193-25 25v56.188c0 27.7-22.3 50-50 50h-130c-2.9189 0-5.7207 0.11159-8.5176 0.22852-36.371 1.8948-46.074 15.98-59.379 27.158z" fill="url(#linearGradient2491)" style="paint-order:fill markers stroke"/><g transform="translate(-17.279 -25.415)"><path transform="matrix(0 .81 .81 0 203.89 227.8)" d="m-249.86-220.89 9.4922-9.4902c13.305 11.178 23.008 25.263 59.379 27.158 2.7969 0.11693 5.5987 0.22851 8.5176 0.22851h130c27.7 0 50 22.3 50 50v130c0 27.7-22.3 50-50 50h-130c-1.7312 0-3.442-0.08577-5.127-0.25586-25.274-2.5514-44.873-23.775-44.873-49.744v-130c0-2.9169-0.11174-5.7167-0.22851-8.5117-1.8936-36.376-15.981-46.079-27.16-59.385z" fill="#00c800" style="paint-order:fill markers stroke"/><path transform="matrix(0 .81 .81 0 203.89 227.8)" d="m-219.46-199.98c9.5424 4.6054 21.588 8.242 37.828 9.0881a12.347 12.347 0 0 0 0.1278 5e-3c2.8132 0.11761 5.7991 0.24113 9.0326 0.24113h130c21.074 0 37.654 16.58 37.654 37.654v130c0 11.353-4.8404 21.374-12.575 28.229z" color="#000000" fill="#00dc00" stroke-linejoin="round" style="paint-order:fill markers stroke"/><path transform="matrix(.81 0 0 -.81 219.67 296.27)" d="m-249.86-220.89 9.4922-9.4902c13.305 11.178 23.008 25.263 59.379 27.158 2.7969 0.11693 5.5987 0.22851 8.5176 0.22851h130c27.7 0 50 22.3 50 50v130c0 27.7-22.3 50-50 50h-130c-1.7312 0-3.442-0.08577-5.127-0.25586-25.274-2.5514-44.873-23.775-44.873-49.744v-130c0-2.9169-0.11174-5.7167-0.22851-8.5117-1.8936-36.376-15.981-46.079-27.16-59.385z" fill="#00b400" style="paint-order:fill markers stroke"/><path transform="matrix(0 -.81 .81 0 203.89 280.49)" d="m-219.46-199.98c9.5424 4.6054 21.588 8.242 37.828 9.0881a12.347 12.347 0 0 0 0.1278 5e-3c2.8132 0.11761 5.7991 0.24113 9.0326 0.24113h130c21.074 0 37.654 16.58 37.654 37.654v130c0 11.353-4.8404 21.374-12.575 28.229z" color="#000000" fill="#00c800" stroke-linejoin="round" style="paint-order:fill markers stroke"/></g><g transform="matrix(2.1068 0 0 2.1068 448.24 -89.128)" style="shape-inside:url(#rect345);white-space:pre" aria-label="绿色森林"><path d="m128.12 91.886 6.7556 4q-4.2667 3.7333-9.2444 7.5556-4.8889 3.7333-9.0667 6.4l-5.0667-3.5556q2.6667-1.8667 5.6889-4.3556 3.1111-2.4889 5.9556-5.1556 2.9333-2.6667 4.9778-4.8889zm-41.6 3.8222 5.6-4.0889q1.9556 1.5111 4 3.4667 2.0444 1.8667 3.8222 3.7333 1.7778 1.8667 2.7556 3.4667l-5.7778 4.5333q-1.4222-2.4-4.4444-5.5111-3.0222-3.1111-5.9556-5.6zm4.0889-28.178h34.578v6.4889h-34.578zm-4.4444 13.6h49.333v7.3778h-49.333zm19.911 4.3556h7.7333v39.022q0 2.9333-0.62222 4.5333-0.62223 1.6889-2.5778 2.6667-1.7778 0.8-4.6222 0.97778-2.7556 0.26666-6.6667 0.26666-0.17778-1.6-0.88889-3.7333-0.71111-2.0444-1.5111-3.6444 2.5778 0.0889 4.8 0.0889 2.2222 0.0889 3.0222 0.0889 1.3333 0 1.3333-1.2444zm-23.289 33.244q3.0222-1.6889 7.0222-4.1778 4-2.4889 8.4444-5.3333 4.4444-2.9333 8.8-5.7778l2.4 5.8667q-5.6 4.2667-11.467 8.4444-5.7778 4.1778-10.667 7.4667zm30.489-20.622q2.1333 4.7111 5.6889 8.9778 3.5556 4.2667 8.0889 7.5556 4.5333 3.2 9.7778 5.0667-1.3333 1.1556-2.8444 3.0222t-2.4 3.3778q-5.2444-2.4-9.8667-6.4t-8.1778-9.0667q-3.5556-5.1556-5.8667-10.844zm-24.356-44.356h36.089v7.2h-36.089zm32.622 0.08889h0.8l1.3333-0.35556 5.8667 0.35556q0 4.4444-0.26666 9.6889-0.17778 5.1556-0.44445 10.311-0.26666 5.1556-0.62222 9.6889l-8-0.44444q0.26667-3.4667 0.44444-7.2889 0.26667-3.9111 0.44445-7.8222 0.17778-3.9111 0.26667-7.2889 0.17777-3.4667 0.17777-5.9556zm-65.778 56.089q-0.17778-0.8-0.71111-2.1333-0.44444-1.3333-0.97778-2.8444-0.44444-1.5111-0.88889-2.4889 1.5111-0.35556 3.0222-1.8667 1.5111-1.5111 3.4667-3.9111 1.0667-1.2444 3.0222-3.9111 1.9556-2.7556 4.3556-6.4889 2.4-3.8222 4.8889-8.1778 2.4889-4.3556 4.5333-8.8l6.9333 4.1778q-4.6222 8.7111-10.489 17.244-5.8667 8.5333-11.822 15.022v0.17778t-0.8 0.44444q-0.8 0.35556-1.8667 0.97778-1.0667 0.62222-1.8667 1.3333-0.8 0.71111-0.8 1.2444zm0 0-0.44444-6.5778 3.6444-2.6667 22.311-3.9111q-0.17778 1.6889-0.26667 3.8222-0.08889 2.0444 0 3.2889-7.5556 1.5111-12.267 2.4889-4.6222 0.97778-7.2 1.6889-2.5778 0.62222-3.8222 1.0667-1.2444 0.44444-1.9556 0.8zm-0.62222-21.511q-0.17778-0.8-0.71111-2.2222-0.44444-1.5111-1.0667-3.1111-0.53333-1.6-0.97778-2.6667 1.2444-0.35556 2.4-1.7778 1.1556-1.4222 2.4889-3.5556 0.71111-1.0667 1.9556-3.5556 1.2444-2.4889 2.8444-5.8667 1.6-3.3778 3.0222-7.2889 1.5111-3.9111 2.6667-7.7333l8.0889 3.6444q-2.0444 5.2444-4.6222 10.667-2.5778 5.3333-5.5111 10.222-2.8444 4.8-5.7778 8.7111v0.26667t-0.71111 0.44444q-0.71111 0.44444-1.6889 1.1556t-1.6889 1.4222q-0.71111 0.71111-0.71111 1.2444zm0 0-0.17778-5.9556 3.6444-2.4889 15.2-1.3333q-0.35556 1.5111-0.53333 3.5556-0.17778 1.9556-0.17778 3.2-5.2444 0.62222-8.4444 1.0667-3.2 0.44444-5.0667 0.8-1.8667 0.35556-2.8444 0.62222-0.97778 0.26667-1.6 0.53333zm-1.9556 31.911q5.2444-1.3333 12.533-3.5556 7.2889-2.3111 14.844-4.6222l1.4222 7.0222q-7.0222 2.4-14.044 4.8t-12.889 4.4444z"/><path d="m179.95 78.019h8.2667v23.644h-8.2667zm-11.111-20h27.911v7.4667h-31.733zm25.511 0h1.9556l1.6889-0.44444 5.4222 4q-2.3111 3.3778-5.3333 7.1111-3.0222 3.7333-6.2222 7.1111-3.2 3.2889-6.3111 5.7778-0.88889-1.1556-2.4-2.5778-1.4222-1.5111-2.4889-2.4 2.5778-2.2222 5.2444-5.1556 2.6667-3.0222 4.8889-6.1333 2.2222-3.1111 3.5556-5.6zm-41.333 17.333h8.0889v42.044q0 2.6667 0.8 4.0889 0.88889 1.4222 3.2889 1.9556 2.4889 0.44445 7.3778 0.44445 1.4222 0 4.6222 0 3.2 0 7.2889 0 4.0889 0 8.1778 0 4.1778 0 7.5556 0 3.4667 0 5.1556 0 4.3556 0 6.4889-0.97778 2.2222-1.0667 3.1111-4 0.97778-3.0222 1.5111-8.7111 1.6 0.97778 3.9111 1.8667 2.4 0.8 4.1778 1.1556-0.71111 5.3333-1.7778 8.8889-1.0667 3.5556-3.1111 5.6-1.9556 2.1333-5.4222 3.0222-3.3778 0.88889-8.6222 0.88889-0.97777 0-3.4667 0t-5.9556 0q-3.3778 0-7.1111 0-3.6444 0-7.0222 0-3.3778 0-5.8667 0-2.4 0-3.2889 0-7.5556 0-12-1.1556-4.3556-1.1556-6.1333-4.2667t-1.7778-8.8zm16.356-25.156 7.6444 2.8444q-3.5556 6.6667-8.5333 12.978-4.9778 6.2222-10.667 11.556-5.6889 5.2444-11.556 9.2444-0.35556-0.88889-1.1556-2.4-0.8-1.5111-1.7778-3.0222-0.88889-1.6-1.6-2.4889 5.3333-3.2889 10.489-7.7333 5.2444-4.5333 9.6889-9.8667 4.4444-5.3333 7.4667-11.111zm-9.9556 25.156h56.178v32.622h-8.3556v-24.889h-47.822zm0 21.156h51.822v8h-51.822z"/><path d="m236.75 60.152h70.933v7.4667h-70.933zm-4.8 37.156h36.089v7.3778h-36.089zm39.467 0h41.067v7.3778h-41.067zm-4-46.844h8.4444v39.556h-8.4444zm-19.733 36.622h7.9111v46.044h-7.9111zm38.489 0h8v46.044h-8zm-21.422-25.333 6.8444 2.6667q-3.6444 5.5111-8.9778 10.4-5.2444 4.8-11.556 8.6222-6.2222 3.7333-12.711 6.1333-0.88889-1.4222-2.4889-3.3778-1.5111-1.9556-2.7556-3.1111 6.2222-1.8667 12.267-5.0667 6.1333-3.2889 11.111-7.4667 5.0667-4.2667 8.2667-8.8zm13.156 0q3.4667 4.4444 8.8 8.5333 5.4222 4 11.822 7.1111 6.4 3.1111 12.978 4.9778-0.8 0.8-1.8667 2.0444-1.0667 1.1556-1.9556 2.4889-0.88889 1.3333-1.6 2.4-6.6667-2.4-13.156-6.1333t-12-8.5333q-5.5111-4.8-9.3333-10.311zm6.4889 37.244 6.2222 1.7778q-2.2222 5.8667-5.4222 11.378t-7.2 9.9556q-3.9111 4.4444-8.4444 7.3778-0.88889-1.3333-2.4-3.2-1.5111-1.7778-2.7556-2.8444 4.1778-2.4 8-6.2222 3.9111-3.9111 7.0222-8.5333 3.1111-4.7111 4.9778-9.6889zm11.111 0.8q2.1333 4.3556 5.2444 8.7111 3.1111 4.3556 6.7556 8 3.7333 3.6444 7.2889 6.0444-1.3333 1.1556-3.1111 3.1111-1.6889 1.9556-2.8444 3.5556-3.5556-3.0222-7.0222-7.4667-3.4667-4.4444-6.4889-9.6889-3.0222-5.2444-5.0667-10.4zm-48.533-0.26667 5.7778 2.2222q-2.0444 5.2444-4.9778 10.4-2.9333 5.1556-6.4889 9.5111-3.5556 4.2667-7.7333 7.0222-0.44445-1.7778-1.6-4-1.1556-2.2222-2.0444-3.8222 3.4667-2.2222 6.7556-5.6t5.9556-7.4667q2.6667-4.0889 4.3556-8.2667zm7.4667 6.2222q0.97778 0.53333 2.9333 1.8667 1.9556 1.2444 4.0889 2.7556 2.2222 1.5111 4.0889 2.8444 1.8667 1.2444 2.5778 1.8667l-4.8889 6.3111q-1.0667-1.1556-2.7556-2.7556-1.6889-1.6889-3.7333-3.4667-1.9556-1.7778-3.8222-3.2889-1.7778-1.6-2.9333-2.4889z"/><path d="m360.12 69.397h40.267v8h-40.267zm15.467-18.844h8.3556v82.489h-8.3556zm-0.35556 22.578 6.3111 2.1333q-1.6889 6.3111-4.0889 12.711-2.4 6.4-5.4222 12.444-3.0222 5.9556-6.4889 11.111-3.3778 5.0667-7.0222 8.8-0.8-1.8667-2.3111-4-1.4222-2.1333-2.5778-3.6444 3.4667-3.3778 6.7556-7.8222 3.2889-4.5333 6.1333-9.7778 2.8444-5.2444 5.0667-10.844 2.3111-5.6 3.6444-11.111zm9.4222 0q1.8667 7.2889 4.7111 14.578 2.9333 7.2889 6.4 13.6 3.5556 6.3111 7.3778 10.489-1.5111 1.1556-3.3778 3.0222-1.8667 1.8667-3.0222 3.5556-3.6444-4.9778-7.1111-12.089-3.3778-7.1111-6.1333-15.289-2.7556-8.1778-4.6222-16.267zm-63.644-3.7333h35.733v8h-35.733zm15.2-18.844h8.2667v82.489h-8.2667zm-0.53333 23.911 5.6 2.0444q-1.3333 5.4222-3.2889 11.2-1.8667 5.7778-4.2667 11.289-2.3111 5.5111-5.0667 10.222-2.6667 4.7111-5.5111 8-0.71111-1.7778-2.0444-4.0889t-2.4-3.9111q2.6667-3.0222 5.2444-7.0222 2.5778-4 4.8-8.6222 2.3111-4.7111 4.0889-9.6 1.7778-4.8889 2.8444-9.5111zm8.6222 4.5333q0.88889 0.71111 2.3111 2.4 1.5111 1.6 3.2889 3.5556 1.7778 1.9556 3.4667 4 1.7778 2.0444 3.2 3.7333 1.4222 1.6 2.0444 2.3111l-5.4222 7.2889q-1.0667-1.8667-2.8444-4.4444-1.6889-2.5778-3.7333-5.3333-1.9556-2.7556-3.8222-5.2444-1.7778-2.4889-3.0222-4z"/></g><text transform="translate(-17.279 -25.415)" font-family="Poppins" font-size="13.333px" font-weight="600" style="line-height:1.25;shape-inside:url(#rect3221);white-space:pre" xml:space="preserve"/><g transform="matrix(2.6441 0 0 2.6441 -1693.7 -663.8)" stroke-width=".3782" style="shape-inside:url(#rect3972);white-space:pre" aria-label="Lǜ Sēnlín"><path d="m851.84 416.37v-47.424h9.472v39.488h19.264v7.936z"/><path d="m897.65 417.27q-5.824 0-8.448-3.776-2.624-3.84-2.624-10.624v-22.336h9.344v21.184q0 4.16 1.216 5.824t3.904 1.664q2.176 0 3.776-1.024 1.664-1.088 3.456-3.456v-24.192h9.408v35.84h-7.68l-0.704-5.184h-0.256q-2.304 2.752-4.992 4.416t-6.4 1.664zm-3.008-42.688q-1.792 0-3.008-1.152-1.152-1.216-1.152-2.944 0-1.856 1.152-3.008 1.216-1.152 3.008-1.152t3.008 1.152 1.216 3.008q0 1.728-1.216 2.944-1.216 1.152-3.008 1.152zm7.424-9.792-7.168-8.32 5.12-3.328 5.696 9.28zm7.936 9.792q-1.792 0-3.008-1.152-1.216-1.216-1.216-2.944 0-1.856 1.216-3.008t3.008-1.152 2.944 1.152q1.216 1.152 1.216 3.008 0 1.728-1.216 2.944-1.152 1.152-2.944 1.152z"/><path d="m957.17 417.27q-4.736 0-9.28-1.792t-8-5.12l5.44-6.528q2.496 2.368 5.696 3.84 3.264 1.408 6.336 1.408 3.712 0 5.632-1.472t1.92-3.968q0-1.792-0.96-2.816-0.896-1.088-2.496-1.92t-3.712-1.664l-6.272-2.752q-2.368-0.96-4.608-2.56-2.176-1.664-3.648-4.16-1.408-2.496-1.408-5.952 0-3.904 2.112-6.976t5.824-4.864q3.712-1.856 8.448-1.856 4.224 0 8.128 1.6t6.784 4.544l-4.8 5.888q-2.24-1.856-4.672-2.88t-5.44-1.024q-3.072 0-4.928 1.344-1.792 1.28-1.792 3.648 0 1.664 1.024 2.752t2.688 1.92q1.664 0.768 3.648 1.6l6.208 2.496q2.88 1.152 4.992 2.88 2.176 1.728 3.328 4.16 1.216 2.432 1.216 5.888 0 3.84-2.112 7.104-2.048 3.264-5.952 5.248-3.84 1.984-9.344 1.984z"/><path d="m997.81 417.27q-4.992 0-9.024-2.24t-6.464-6.464q-2.368-4.224-2.368-10.112 0-4.352 1.344-7.808 1.408-3.456 3.776-5.888 2.432-2.496 5.376-3.776 3.008-1.344 6.208-1.344 4.928 0 8.256 2.24 3.328 2.176 4.992 6.08 1.728 3.84 1.728 8.832 0 1.28-0.128 2.496-0.128 1.152-0.32 1.856h-22.08q0.384 2.88 1.728 4.864t3.456 3.008q2.112 0.96 4.8 0.96 2.176 0 4.096-0.576 1.92-0.64 3.904-1.856l3.2 5.76q-2.624 1.792-5.888 2.88t-6.592 1.088zm-8.896-22.464h14.656q0-3.584-1.664-5.696-1.6-2.176-5.12-2.176-1.856 0-3.52 0.896-1.664 0.832-2.816 2.624-1.152 1.728-1.536 4.352zm-2.816-21.568v-6.08h20.928v6.08z"/><path d="m1019.4 416.37v-35.84h7.68l0.704 4.736h0.192q2.368-2.304 5.184-3.968t6.464-1.664q5.824 0 8.448 3.84 2.624 3.776 2.624 10.56v22.336h-9.408v-21.184q0-4.16-1.216-5.824-1.152-1.664-3.84-1.664-2.176 0-3.84 1.024-1.6 1.024-3.584 3.008v24.64z"/><path d="m1069.3 417.27q-3.328 0-5.248-1.344-1.92-1.408-2.816-3.84-0.832-2.496-0.832-5.76v-41.024h9.408v41.408q0 1.6 0.576 2.24 0.64 0.64 1.28 0.64 0.32 0 0.576 0 0.256-0.064 0.704-0.128l1.152 6.976q-0.832 0.32-2.048 0.576-1.152 0.256-2.752 0.256z"/><path d="m1080.6 416.37v-35.84h9.408v35.84zm4.992-41.6-4.672-4.544 10.88-12.992 6.464 6.208z"/><path d="m1100 416.37v-35.84h7.68l0.704 4.736h0.192q2.368-2.304 5.184-3.968t6.464-1.664q5.824 0 8.448 3.84 2.624 3.776 2.624 10.56v22.336h-9.408v-21.184q0-4.16-1.216-5.824-1.152-1.664-3.84-1.664-2.176 0-3.84 1.024-1.6 1.024-3.584 3.008v24.64z"/></g></svg>
