<?xml version="1.0" encoding="UTF-8"?><svg version="1.1" viewBox="0 0 85.074 107.24" xmlns="http://www.w3.org/2000/svg"> <g transform="translate(-219.3 345.38)" display="none">  <rect transform="translate(-3.7474,-28.345)" x="-54.972" y="-93.964" width="987.92" height="515.02" display="inline" fill="#2bcfff" stroke="#ff2eff" stroke-linejoin="bevel" stroke-width=".52917"/> </g> <text transform="translate(94.147 501.68)" fill="#000000" font-family="sans-serif" font-size="40px" style="line-height:1.25;shape-inside:url(#rect12293);white-space:pre" xml:space="preserve"/> <g transform="matrix(1.2045 0 0 1.2045 -3.7503e-5 -183.16)">  <path d="m35.317 152.06c-3.0195 1.6e-4 -5.7589 1.7706-6.999 4.5238l-27.632 61.401c-2.2881 5.0798 1.4278 10.828 6.999 10.828l12.597-3e-3c3.6817-2e-3 6.7683 2.6128 7.499 6.0888 0.69154 3.5261 3.8024 6.1912 7.5353 6.192 4.2397 2e-3 7.6771-3.4346 7.6785-7.6744v-3.2993c-1.0079-0.26777-1.3695-1.0526-2.398-1.053-2.3702-4.8e-4 -2.8943-0.9793-3.3334-3.2183-0.46412-2.2072-2.1542-3.622-4.492-3.6207l-9.4498-0.76054c-3.5377-2.1e-4 -4.4457-1.5847-2.9928-4.81l17.177-37.021c0.78737-1.7482 0.48538-3.0455 2.4027-3.0456 1.9184-1e-3 3.0445-0.69504 3.8323 1.0541l17.496 38.643c1.1062 2.4559 0.40365 3.9913-2.0532 5.0952-1.5847 0.71271-2.2849 0.99019-4.1004 0.98108l0.86587 1.9224c1.7384 3.8667 6.282 5.5923 10.149 3.8533 3.8693-1.7384 5.5953-6.2856 3.8533-10.153l-27.632-61.401c-1.2408-2.7547-3.9815-4.5253-7.0024-4.5238z" color="#000000" fill="#00e900" stroke-width=".67756" style="-inkscape-stroke:none"/>  <g transform="matrix(1.4736,0,0,1.4736,-113.78,11.663)">   <path transform="matrix(.12165 0 0 .12165 71.24 95.052)" d="m273.48 126.7c-10.694 1e-3 -20.393 6.2763-24.785 16.027l-97.871 217.48c-8.1043 17.992 5.0517 38.352 24.785 38.354l44.621-8e-3c13.04-7e-3 23.978 9.2563 26.566 21.568 2.4494 12.489 13.464 21.927 26.686 21.93 5.7452 2e-3 11.075-1.7767 15.467-4.8164l-0.0352-8e-3v-23.762c-0.57104 0.0493-1.1483 0.0804-1.7324 0.0801-0.23379-5e-5 -0.44945-0.0285-0.66406-0.0586-9.3663-0.31147-17.107-7.0986-18.859-16.033-1.8958-9.0162-9.9055-15.8-19.455-15.795l-32.68 8e-3c-14.451-8.2e-4 -24.083-14.916-18.148-28.092l71.668-159.26c3.2165-7.1411 10.322-11.734 18.137-11.734 7.8144 4.4e-4 14.922 4.5932 18.139 11.734l71.668 159.26c5.9348 13.176-3.6976 28.091-18.148 28.092l-8.1641-2e-3 5.6738 12.301-0.0215 0.0332c7.521 4.9896 17.343 6.1498 26.184 2.1738 13.705-6.1573 19.819-22.264 13.648-35.963l-97.873-217.48c-4.3945-9.7563-14.103-16.034-24.803-16.029z" color="#000000" style="-inkscape-stroke:none"/>  </g> </g></svg>